<svg width="291" height="217" viewBox="0 0 291 217" fill="none" xmlns="http://www.w3.org/2000/svg">
<path d="M290.817 190.104H0.610687V190.249H290.817V190.104Z" fill="#E6E6E6"/>
<path d="M73.0613 198.868H53.8369V199.012H73.0613V198.868Z" fill="#E6E6E6"/>
<path d="M47.753 198.868H36.6131V199.012H47.753V198.868Z" fill="#E6E6E6"/>
<path d="M122.819 200.999H111.68V201.144H122.819V200.999Z" fill="#E6E6E6"/>
<path d="M180.896 204.233H155.826V204.378H180.896V204.233Z" fill="#E6E6E6"/>
<path d="M150.659 204.233H146.983V204.378H150.659V204.233Z" fill="#E6E6E6"/>
<path d="M263.737 200.999H209.366V201.144H263.737V200.999Z" fill="#E6E6E6"/>
<path d="M138.177 164.271H26.0995C24.273 164.271 22.7865 162.787 22.7865 160.965V3.74086C22.7865 1.918 24.273 0.43457 26.0995 0.43457H138.177C140.003 0.43457 141.489 1.918 141.489 3.74086V160.965C141.489 162.787 140.003 164.271 138.177 164.271ZM26.0995 0.579959C24.3525 0.579959 22.9316 1.99793 22.9316 3.74144V160.965C22.9316 162.709 24.3525 164.127 26.0995 164.127H138.177C139.923 164.127 141.344 162.709 141.344 160.965V3.74086C141.344 1.99793 139.923 0.57938 138.177 0.57938L26.0995 0.579959Z" fill="#E6E6E6"/>
<path d="M263.718 164.271H151.641C149.815 164.271 148.329 162.787 148.329 160.965V3.74086C148.329 1.918 149.815 0.43457 151.641 0.43457H263.718C265.545 0.43457 267.031 1.918 267.031 3.74086V160.965C267.031 162.787 265.545 164.271 263.718 164.271ZM151.641 0.579959C149.895 0.579959 148.474 1.99793 148.474 3.74144V160.965C148.474 162.709 149.895 164.127 151.641 164.127H263.718C265.465 164.127 266.886 162.709 266.886 160.965V3.74086C266.886 1.99793 265.465 0.57938 263.718 0.57938L151.641 0.579959Z" fill="#E6E6E6"/>
<path d="M155.812 140.625H143.05V191.154H155.812V140.625Z" fill="#E0E0E0"/>
<path d="M153.389 191.154H155.812V184.273H150.847L153.389 191.154Z" fill="#FAFAFA"/>
<path d="M99.8868 140.625H87.1241V191.154H99.8868V140.625Z" fill="#E0E0E0"/>
<path d="M155.813 140.625H97.7711V186.932H155.813V140.625Z" fill="#FAFAFA"/>
<path d="M153.708 142.901V155.153H99.8758V142.901H153.708ZM153.932 142.677H99.6512V155.377H153.932V142.677Z" fill="#E0E0E0"/>
<path d="M100.195 191.154H97.7711V184.273H102.737L100.195 191.154Z" fill="#FAFAFA"/>
<path d="M125.508 149.027C125.508 149.734 126.083 150.308 126.792 150.308C127.501 150.308 128.076 149.734 128.076 149.027C128.076 148.319 127.501 147.745 126.792 147.745C126.083 147.746 125.508 148.319 125.508 149.027Z" fill="#E6E6E6"/>
<path d="M153.708 157.653V169.904H99.8758V157.653H153.708ZM153.932 157.429H99.6512V170.128H153.932V157.429Z" fill="#E0E0E0"/>
<path d="M125.508 163.778C125.508 164.485 126.083 165.059 126.792 165.059C127.501 165.059 128.076 164.486 128.076 163.778C128.076 163.07 127.501 162.497 126.792 162.497C126.083 162.497 125.508 163.071 125.508 163.778Z" fill="#E6E6E6"/>
<path d="M153.708 172.404V184.655H99.8758V172.404H153.708ZM153.932 172.18H99.6512V184.88H153.932V172.18Z" fill="#E0E0E0"/>
<path d="M125.508 178.53C125.508 179.237 126.083 179.811 126.792 179.811C127.501 179.811 128.076 179.238 128.076 178.53C128.076 177.822 127.501 177.249 126.792 177.249C126.083 177.249 125.508 177.822 125.508 178.53Z" fill="#E6E6E6"/>
<path d="M92.0895 111.28H79.3268V191.155H92.0895V111.28Z" fill="#E0E0E0"/>
<path d="M89.6657 191.155H92.0895V184.273H87.1241L89.6657 191.155Z" fill="#FAFAFA"/>
<path d="M44.3895 111.28H31.6268V191.155H44.3895V111.28Z" fill="#E0E0E0"/>
<path d="M92.0895 111.28H42.2744V186.932H92.0895V111.28Z" fill="#FAFAFA"/>
<path d="M89.9449 113.422V130.55H44.4191V113.422H89.9449ZM90.209 113.158H44.155V130.814H90.209V113.158Z" fill="#E0E0E0"/>
<path d="M89.9449 132.632V178.065H68.2601V132.632H89.9449ZM90.209 132.368H67.9954V178.33H90.209V132.368Z" fill="#E0E0E0"/>
<path d="M66.1039 132.632V178.065H44.4191V132.632H66.1039ZM66.3685 132.368H44.155V178.33H66.3685V132.368Z" fill="#E0E0E0"/>
<path d="M44.6982 191.155H42.2744V184.273H47.2399L44.6982 191.155Z" fill="#FAFAFA"/>
<path d="M65.8984 121.986C65.8984 122.694 66.473 123.267 67.1822 123.267C67.8909 123.267 68.4661 122.694 68.4661 121.986C68.4661 121.279 67.8915 120.705 67.1822 120.705C66.473 120.705 65.8984 121.279 65.8984 121.986Z" fill="#E6E6E6"/>
<path d="M70.4941 154.265C70.4941 154.972 71.0687 155.546 71.778 155.546C72.4872 155.546 73.0618 154.973 73.0618 154.265C73.0618 153.558 72.4872 152.984 71.778 152.984C71.0687 152.984 70.4941 153.557 70.4941 154.265Z" fill="#E6E6E6"/>
<path d="M61.3021 154.265C61.3021 154.972 61.8767 155.546 62.586 155.546C63.2947 155.546 63.8699 154.973 63.8699 154.265C63.8699 153.558 63.2952 152.984 62.586 152.984C61.8773 152.984 61.3021 153.557 61.3021 154.265Z" fill="#E6E6E6"/>
<path d="M59.8563 89.0099H54.4724C54.4724 89.0099 55.4069 93.9769 55.4069 96.8997C55.4069 99.8225 51.3115 111.28 57.1644 111.28C63.0167 111.28 58.9219 99.8219 58.9219 96.8997C58.9213 93.9763 59.8563 89.0099 59.8563 89.0099Z" fill="#E0E0E0"/>
<path d="M39.384 100.756V104.247C39.384 108.115 42.5548 111.279 46.4308 111.279H49.9289C53.8044 111.279 56.9752 108.115 56.9752 104.247V100.756H39.384Z" fill="#F5F5F5"/>
<path d="M114.178 133.261C114.178 137.311 118.723 140.625 124.279 140.625H129.293C134.849 140.625 139.394 137.311 139.394 133.261H114.178Z" fill="#E0E0E0"/>
<path d="M247.057 127.333C244.016 129.81 239.818 134.347 235.972 140.729C233.41 144.98 231.866 149.434 231.188 155.318C231.203 148.657 231.224 141.5 231.247 134.746C232.019 133.008 233.784 129.003 235.05 125.838C239.273 115.278 240.846 112.681 244.645 103.572C249.712 91.4235 254.903 77.008 253.417 78.1601C250.388 80.5072 238.779 102.201 237.524 105.306C233.208 115.987 232.006 123.773 231.259 131.286C231.282 124.942 231.307 119.117 231.332 114.623C231.409 99.9638 231.66 95.2326 231.782 93.7735C232.251 93.0321 232.806 92.1679 233.129 91.7021C235.855 87.7674 236.907 84.4153 239.477 78.5465C243.118 70.2304 246.253 55.4656 245.336 56.2105C241.52 59.3112 238.509 65.9776 234.553 74.4721C230.597 82.9667 231.728 87.8514 230.943 95.1063C230.779 96.5301 230.653 101.903 230.561 109.349C229.535 101.416 227.611 96.1884 224.099 91.438C219.78 85.5952 215.601 81.6483 212.536 79.5868C209.47 77.5259 217.83 91.8782 221.827 98.1427C225.388 103.721 228.667 108.644 230.516 113.493C230.418 123.584 230.373 136.363 230.373 148.258C229.456 142.845 227.958 137.016 225.961 132.502C223.56 127.079 219.867 118.76 216.927 115.939C216.221 115.261 220.001 131.439 222.426 135.741C224.853 140.043 226.633 144.097 228.16 146.536C228.517 147.105 229.698 149.299 230.373 150.56C230.38 165.082 230.454 177.896 230.581 182.257H231.209C231.166 181.132 231.159 173.745 231.173 163.968C232.686 158.659 236.149 152.602 239.005 147.075C242.124 141.042 250.099 124.855 247.057 127.333Z" fill="#E0E0E0"/>
<path d="M239.996 191.154H221.804L220.431 173.358H241.369L239.996 191.154Z" fill="#F0F0F0"/>
<path d="M242.725 175.432H219.075L218.398 169.427H243.403L242.725 175.432Z" fill="#F5F5F5"/>
<path d="M72.7328 12.3351H40.1995V47.9866H72.7328V12.3351Z" fill="#E0E0E0"/>
<path d="M76.2565 12.3351H42.6518V47.9866H76.2565V12.3351Z" fill="#F5F5F5"/>
<path d="M73.4407 45.1769V15.1445L45.4666 15.1445L45.4666 45.1769H73.4407Z" fill="white"/>
<path d="M66.6603 37.8982V22.4244L52.2475 22.4244V37.8982H66.6603Z" fill="#F5F5F5"/>
<path d="M238.61 16.4911H208.387V49.6102H238.61V16.4911Z" fill="#E0E0E0"/>
<path d="M241.883 16.4911H210.666V49.6102H241.883V16.4911Z" fill="#F5F5F5"/>
<path d="M239.268 47.0004V19.1014L213.281 19.1014V47.0004H239.268Z" fill="white"/>
<path d="M226.274 41.1417C230.752 41.1417 234.381 37.5193 234.381 33.0509C234.381 28.5825 230.752 24.9601 226.274 24.9601C221.797 24.9601 218.167 28.5825 218.167 33.0509C218.167 37.5193 221.797 41.1417 226.274 41.1417Z" fill="#F5F5F5"/>
<path d="M106.53 33.593H82.3961V60.0399H106.53V33.593Z" fill="#E0E0E0"/>
<path d="M109.144 33.593H84.2157V60.0399H109.144V33.593Z" fill="#F5F5F5"/>
<path d="M107.056 57.956V35.6774L86.3044 35.6774V57.956H107.056Z" fill="white"/>
<path d="M96.68 41.1846L91.0047 50.9951H102.355L96.68 41.1846Z" fill="#F5F5F5"/>
<path d="M145.714 216.264C207.866 216.264 258.25 213.327 258.25 209.705C258.25 206.083 207.866 203.146 145.714 203.146C83.5622 203.146 33.1783 206.083 33.1783 209.705C33.1783 213.327 83.5622 216.264 145.714 216.264Z" fill="#F5F5F5"/>
<path d="M203.318 63.2702L197.56 60.9406C197.56 60.9406 189.963 74.7687 187.787 75.4667C184.826 76.4166 178.702 79.0574 175.062 79.552C174.572 80.1243 173.763 81.9292 173.84 82.5873C178.723 84.212 189.449 82.0544 191.745 80.3531C196.979 76.4728 203.318 63.2702 203.318 63.2702Z" fill="#E58A7B"/>
<path d="M205.09 60.1326C206.161 64.094 200.346 72.051 200.346 72.051L192.706 67.7744C192.706 67.7744 194.131 64.5035 195.874 61.1723C198.69 55.7929 203.867 55.6116 205.09 60.1326Z" fill="#D3BBDD"/>
<path opacity="0.2" d="M205.09 60.1326C206.161 64.094 200.346 72.051 200.346 72.051L192.706 67.7744C192.706 67.7744 194.131 64.5035 195.874 61.1723C198.69 55.7929 203.867 55.6116 205.09 60.1326Z" fill="black"/>
<path opacity="0.2" d="M195.752 69.4774L198.753 71.156L199.277 61.9658C197.536 63.305 196.301 67.3348 195.752 69.4774Z" fill="black"/>
<path d="M200.077 57.1483C200.077 57.1483 194.145 70.3178 197.603 94.8433C204.646 94.8433 217.55 94.8433 220.977 94.8433C221.348 91.2625 220.12 73.795 224.572 56.9235C224.572 56.9235 220.612 56.1213 216.805 55.9376C213.827 55.794 209.509 55.699 206.869 55.9382C203.389 56.2533 200.077 57.1483 200.077 57.1483Z" fill="#D3BBDD"/>
<path opacity="0.2" d="M200.077 57.1483C200.077 57.1483 194.145 70.3178 197.603 94.8433C204.646 94.8433 217.55 94.8433 220.977 94.8433C221.348 91.2625 220.12 73.795 224.572 56.9235C224.572 56.9235 220.612 56.1213 216.805 55.9376C213.827 55.794 209.509 55.699 206.869 55.9382C203.389 56.2533 200.077 57.1483 200.077 57.1483Z" fill="black"/>
<path d="M194.656 210.229C194.619 210.851 203.481 211.355 214.449 211.355C225.417 211.355 234.338 210.851 234.375 210.229C234.411 209.607 225.55 209.103 214.582 209.103C203.614 209.102 194.693 209.607 194.656 210.229Z" fill="#E8ECF1"/>
<path d="M210.802 194.599L206.643 196.198L210.209 205.436L214.369 203.837L210.802 194.599Z" fill="#E58A7B"/>
<path d="M228.743 205.776H224.373L222.769 195.676H227.139L228.743 205.776Z" fill="#E58A7B"/>
<path d="M224.092 205.271H229.001C229.18 205.271 229.328 205.394 229.356 205.568L229.992 209.444C230.058 209.846 229.719 210.227 229.306 210.22C227.594 210.191 226.767 210.09 224.608 210.09C223.28 210.09 220.535 210.228 218.701 210.228C216.907 210.228 216.733 208.418 217.494 208.254C220.904 207.519 222.232 206.505 223.367 205.539C223.571 205.364 223.83 205.271 224.092 205.271Z" fill="#263238"/>
<path d="M209.543 203.744L214.198 202.393C214.373 202.342 214.552 202.417 214.629 202.573L216.354 206.046C216.533 206.406 216.322 206.858 215.918 206.968C214.232 207.427 213.098 207.714 210.987 208.327C209.528 208.749 208.045 209.439 206.604 209.897C205.606 210.215 203.263 210.228 202.049 210.228C200.255 210.228 199.855 208.34 200.624 208.254C202.57 208.036 202.832 208.137 203.906 207.599C205.682 206.71 207.056 205.974 208.593 204.366C208.862 204.087 209.176 203.85 209.543 203.744Z" fill="#263238"/>
<path d="M175.798 79.5104L170.99 77.4912L169.01 82.8075C169.01 82.8075 171.785 83.3097 174.954 82.8075L175.798 79.5104Z" fill="#E58A7B"/>
<path d="M167.416 77.3608L167.289 80.8983L169.01 82.8074L170.99 77.4912L167.416 77.3608Z" fill="#E58A7B"/>
<path d="M210.818 194.588L206.658 196.191L208.499 200.952L212.659 199.349L210.818 194.588Z" fill="#CF6F64"/>
<path d="M227.141 195.679H222.769L223.598 200.884H227.969L227.141 195.679Z" fill="#CF6F64"/>
<path opacity="0.2" d="M196.862 88.2094C196.945 89.2572 197.047 90.3283 197.172 91.4294L214.552 85.7986C217.266 84.9888 219.628 83.2864 221.238 80.9596C221.304 79.4119 221.393 77.7872 221.524 76.0906C221.584 75.2634 221.656 74.4177 221.733 73.561C221.817 72.6684 221.912 71.7573 222.02 70.8409L196.862 88.2094Z" fill="black"/>
<path d="M202.536 69.2109L201.944 69.1408C202.289 66.2504 204.451 63.9659 206.735 64.0204L206.718 64.6158C204.746 64.5585 202.846 66.6188 202.536 69.2109Z" fill="white"/>
<path d="M205.629 74.5596C205.596 74.5596 205.564 74.559 205.531 74.5584L205.548 73.963C207.544 74.036 209.419 71.9594 209.729 69.3673L210.321 69.438C209.981 72.2873 207.888 74.5596 205.629 74.5596Z" fill="white"/>
<path d="M216.477 44.7723C215.662 47.9628 214.694 53.8085 216.805 55.9372C216.805 55.9372 215.33 59.1734 209.39 59.1734C203.961 59.1734 206.869 55.9372 206.869 55.9372C210.484 55.0874 210.547 52.4478 210.072 49.9687L216.477 44.7723Z" fill="#E58A7B"/>
<path d="M213.865 46.8929L210.075 49.967C210.189 50.5537 210.27 51.1486 210.278 51.7267C211.386 52.8278 213.61 50.0382 213.838 48.615C213.951 47.906 213.962 47.2237 213.865 46.8929Z" fill="#CF6F64"/>
<path d="M203.56 44.7329C204.116 45.7257 205.096 46.3438 206.022 46.5494C207.416 46.8593 208.116 45.5797 207.732 44.2921C207.386 43.133 206.245 41.5755 204.844 41.8425C203.464 42.1061 202.925 43.5976 203.56 44.7329Z" fill="#CF6F64"/>
<path d="M205.86 34.5215C203.689 35.5143 202.924 44.12 205.653 45.3926C208.382 46.6646 209.971 32.6419 205.86 34.5215Z" fill="#263238"/>
<path d="M217.139 39.971C216.619 44.291 216.534 46.8332 214.218 49.0506C210.733 52.3858 205.506 50.4077 204.726 46.0953C204.024 42.2138 204.992 35.8011 209.331 34.0819C213.605 32.3882 217.658 35.651 217.139 39.971Z" fill="#E58A7B"/>
<path d="M210.009 36.7603C213.219 35.9407 215.583 35.3823 214.739 38.0572C213.616 41.6207 212.268 45.0729 214.076 45.234C215.175 45.3319 220.051 43.2669 219.432 41.1793C218.893 39.3605 221.159 38.8699 221.577 37.9425C223.082 34.6026 218.782 35.0365 219.547 33.0155C220.292 31.0478 216.083 27.7224 213.75 29.3472C209.974 31.9775 203.485 31.9399 206.897 27.6257C209.34 24.536 204.981 25.1703 204.981 25.1703C204.981 25.1703 207.614 26.729 203.182 29.1387C198.484 31.692 202.785 38.6046 210.009 36.7603Z" fill="#263238"/>
<path d="M218.815 44.7329C218.142 45.7257 217.09 46.3438 216.139 46.5494C214.709 46.8593 214.159 45.5797 214.694 44.2921C215.176 43.133 216.501 41.5755 217.87 41.8425C219.218 42.1061 219.583 43.5976 218.815 44.7329Z" fill="#E58A7B"/>
<path d="M197.603 94.8434C197.603 94.8434 193.68 129.886 193.374 143.185C193.056 157.018 206.67 200.178 206.67 200.178L213.641 197.257C213.641 197.257 205.524 157.826 206.652 144.24C207.881 129.43 212.967 94.8428 212.967 94.8428H197.603V94.8434Z" fill="#D3BBDD"/>
<path opacity="0.2" d="M207.353 104.465C204.228 110.941 206.333 123.744 208.027 131.334C208.671 125.977 209.434 120.162 210.162 114.781C210.091 106.507 209.447 100.12 207.353 104.465Z" fill="black"/>
<path d="M213.326 194.986C213.359 194.972 214.153 197.203 214.153 197.203L206.117 200.57L204.852 198.221L213.326 194.986Z" fill="#D3BBDD"/>
<path d="M205.895 94.8434C205.895 94.8434 208.896 128.172 210.885 140.658C213.063 154.331 221.62 199.877 221.62 199.877H229.624C229.624 199.877 224.828 155.435 223.922 141.897C222.938 127.204 220.976 94.8434 220.976 94.8434H205.895Z" fill="#D3BBDD"/>
<path d="M229.746 197.795C229.78 197.795 230.014 200.028 230.014 200.028H221.216L220.588 197.465L229.746 197.795Z" fill="#D3BBDD"/>
<path opacity="0.2" d="M226.68 195.157C226.642 195.157 226.61 195.129 226.606 195.091C226.562 194.687 222.238 154.563 221.424 142.401C220.541 129.202 218.766 99.9355 218.748 99.6413C218.745 99.6002 218.777 99.5648 218.817 99.5625C218.819 99.5625 218.821 99.5625 218.822 99.5625C218.861 99.5625 218.895 99.5932 218.897 99.6326C218.914 99.9263 220.69 129.192 221.573 142.39C222.386 154.551 226.71 194.671 226.754 195.075C226.759 195.116 226.729 195.152 226.688 195.156C226.685 195.157 226.682 195.157 226.68 195.157Z" fill="black"/>
<path d="M210.502 41.1787C210.481 41.5303 210.278 41.8158 210.047 41.8158C209.817 41.8158 209.647 41.5308 209.668 41.1787C209.688 40.8271 209.892 40.5415 210.122 40.5415C210.353 40.5415 210.523 40.8271 210.502 41.1787Z" fill="#263238"/>
<path d="M206.518 41.1787C206.497 41.5303 206.294 41.8158 206.063 41.8158C205.833 41.8158 205.663 41.5308 205.684 41.1787C205.705 40.8271 205.908 40.5415 206.138 40.5415C206.369 40.5415 206.539 40.8271 206.518 41.1787Z" fill="#263238"/>
<path d="M207.774 41.3536C207.774 41.3536 206.853 43.3833 205.913 44.3622C206.503 44.9432 207.578 44.6773 207.578 44.6773L207.774 41.3536Z" fill="#DF5753"/>
<path d="M207.875 46.1532C207.819 46.1532 207.774 46.1068 207.778 46.0501C207.781 45.9933 207.831 45.947 207.888 45.947C209.435 45.947 210.22 44.8684 210.228 44.8574C210.263 44.8099 210.328 44.796 210.374 44.8273C210.419 44.8586 210.429 44.9223 210.395 44.9704C210.36 45.0179 209.534 46.1532 207.875 46.1532Z" fill="#263238"/>
<path d="M211.211 40.1089C211.151 40.1321 211.083 40.1286 211.028 40.0933C210.266 39.6148 209.556 39.9357 209.549 39.9398C209.452 39.9896 209.322 39.9461 209.279 39.843C209.235 39.7399 209.286 39.6166 209.392 39.5673C209.43 39.5494 210.318 39.1468 211.263 39.7405C211.358 39.8002 211.381 39.927 211.316 40.0243C211.289 40.0637 211.252 40.0927 211.211 40.1089Z" fill="#263238"/>
<path d="M204.977 38.9533C204.949 38.9451 204.921 38.9307 204.899 38.9087C204.817 38.8334 204.817 38.703 204.899 38.6173C205.709 37.7629 206.648 37.8932 206.687 37.899C206.798 37.9112 206.871 38.0207 206.848 38.1336C206.824 38.246 206.715 38.3236 206.603 38.3074C206.572 38.3028 205.839 38.2095 205.192 38.8913C205.134 38.9527 205.05 38.9741 204.977 38.9533Z" fill="#263238"/>
<path d="M226.815 62.6244L220.777 61.0205C220.777 61.0205 214.857 75.564 212.765 76.5134C209.92 77.8057 202.714 82.2751 199.652 84.4304C199.482 85.151 199.616 87.0717 200.001 87.5948C205.208 86.6506 215.225 82.8074 217.314 80.8536C222.077 76.3999 226.815 62.6244 226.815 62.6244Z" fill="#E58A7B"/>
<path d="M222.602 206.032C222.269 206.032 221.962 205.975 221.774 205.81C221.624 205.679 221.563 205.495 221.592 205.264C221.613 205.092 221.708 205.01 221.786 204.972C222.279 204.725 223.642 205.588 223.796 205.688C223.83 205.711 223.846 205.752 223.837 205.793C223.828 205.833 223.796 205.867 223.754 205.876C223.446 205.949 223.006 206.032 222.602 206.032ZM222.006 205.13C221.952 205.13 221.906 205.138 221.87 205.156C221.841 205.17 221.807 205.197 221.798 205.277C221.778 205.441 221.816 205.564 221.916 205.652C222.143 205.853 222.712 205.88 223.463 205.73C222.986 205.445 222.341 205.13 222.006 205.13Z" fill="#D3BBDD"/>
<path d="M223.73 205.879C223.713 205.879 223.696 205.875 223.681 205.866C223.243 205.621 222.425 204.666 222.547 204.179C222.568 204.091 222.642 203.939 222.892 203.909C223.055 203.888 223.2 203.934 223.325 204.041C223.808 204.455 223.839 205.714 223.84 205.767C223.841 205.805 223.821 205.841 223.788 205.861C223.77 205.873 223.75 205.879 223.73 205.879ZM222.952 204.111C222.937 204.111 222.922 204.113 222.905 204.114C222.77 204.131 222.754 204.192 222.748 204.219C222.676 204.506 223.191 205.228 223.62 205.569C223.591 205.201 223.494 204.467 223.185 204.202C223.114 204.14 223.038 204.111 222.952 204.111Z" fill="#D3BBDD"/>
<path d="M207.189 205.312C206.762 205.415 206.355 205.445 206.095 205.305C205.929 205.215 205.834 205.066 205.812 204.863C205.799 204.741 205.84 204.635 205.93 204.556C206.398 204.14 208.291 204.587 208.506 204.639C208.548 204.65 208.577 204.685 208.579 204.729C208.581 204.773 208.555 204.815 208.514 204.834C208.163 204.992 207.664 205.197 207.189 205.312ZM206.246 204.623C206.166 204.643 206.104 204.67 206.062 204.706C206.026 204.739 206.012 204.776 206.018 204.829C206.033 204.967 206.094 205.063 206.202 205.122C206.51 205.29 207.225 205.157 208.147 204.772C207.499 204.637 206.653 204.524 206.246 204.623Z" fill="#D3BBDD"/>
<path d="M208.495 204.84C208.48 204.843 208.466 204.843 208.451 204.841C207.889 204.737 206.687 204.071 206.676 203.572C206.673 203.456 206.729 203.296 207.004 203.201C207.203 203.126 207.409 203.141 207.602 203.236C208.232 203.546 208.562 204.658 208.576 204.705C208.586 204.74 208.577 204.778 208.551 204.807C208.535 204.823 208.516 204.834 208.495 204.84ZM207.122 203.376C207.102 203.381 207.082 203.388 207.061 203.394C206.881 203.457 206.883 203.531 206.883 203.555C206.89 203.854 207.724 204.405 208.313 204.59C208.196 204.27 207.914 203.625 207.501 203.422C207.376 203.36 207.252 203.345 207.122 203.376Z" fill="#D3BBDD"/>
<path d="M200.144 84.0881L194.091 86.8685L193.389 88.5726L195.626 90.0746C195.626 90.0746 199.8 89.621 200.989 86.9444L200.144 84.0881Z" fill="#E58A7B"/>
<path d="M200.402 87.6933C200.023 85.4493 199.284 84.4258 199.277 84.416L200.231 83.7018C200.268 83.751 201.145 84.9327 201.578 87.4958L200.402 87.6933Z" fill="#263238"/>
<path d="M201.432 84.9101C201.629 85.3949 201.313 85.9788 200.728 86.2151C200.142 86.4514 199.509 86.2499 199.313 85.765C199.117 85.2802 199.432 84.6963 200.017 84.46C200.602 84.2243 201.236 84.4253 201.432 84.9101Z" fill="#263238"/>
<path d="M190.002 89.1136L190.806 89.9262L196.237 87.6081L194.091 86.869L190.002 89.1136Z" fill="#E58A7B"/>
<path opacity="0.2" d="M213.326 194.986C213.359 194.972 214.153 197.203 214.153 197.203L206.117 200.57L204.852 198.221L213.326 194.986Z" fill="black"/>
<path opacity="0.2" d="M229.746 197.795C229.78 197.795 230.014 200.028 230.014 200.028H221.216L220.588 197.465L229.746 197.795Z" fill="black"/>
<path d="M228.388 60.9573C229.985 66.0934 223.768 73.1098 223.768 73.1098L215.15 69.5996C215.15 69.5996 216.365 65.8681 218.675 60.8687C221.302 55.187 226.777 55.7737 228.388 60.9573Z" fill="#D3BBDD"/>
<path opacity="0.2" d="M228.388 60.9573C229.985 66.0934 223.768 73.1098 223.768 73.1098L215.15 69.5996C215.15 69.5996 216.365 65.8681 218.675 60.8687C221.302 55.187 226.777 55.7737 228.388 60.9573Z" fill="black"/>
<path d="M142.739 9.48108H139.032V10.0765H142.739V9.48108Z" fill="#D3BBDD"/>
<path d="M190.756 33.0911L190.307 43.0302L190.902 43.0569L191.351 33.1179L190.756 33.0911Z" fill="#D3BBDD"/>
<path d="M189.601 12.1594H121.113L114.737 154.489H183.225L189.601 12.1594Z" fill="#D3BBDD"/>
<path opacity="0.56" d="M187.556 14.1127H119.068L112.692 156.442H181.181L187.556 14.1127Z" fill="#FAFAFA"/>
<path opacity="0.07" d="M185.511 16.0658H117.024L110.648 158.396H179.136L185.511 16.0658Z" fill="#D3BBDD"/>
<path d="M177.716 78.1416H119.258L118.77 89.0348H177.228L177.716 78.1416Z" fill="white"/>
<path d="M151.411 70.1968H119.614L119.396 75.0705H151.192L151.411 70.1968Z" fill="#D3BBDD"/>
<path d="M176.399 107.534H117.941L117.453 118.427H175.911L176.399 107.534Z" fill="white"/>
<path opacity="0.47" d="M165.679 133.129H126.368L125.784 146.184H165.094L165.679 133.129Z" fill="#D3BBDD"/>
<path d="M163.05 148.206H123.739C123.721 148.206 123.703 148.198 123.69 148.185C123.677 148.171 123.67 148.153 123.671 148.134L124.256 135.079C124.257 135.042 124.288 135.013 124.325 135.013H163.635C163.653 135.013 163.671 135.021 163.685 135.034C163.697 135.048 163.704 135.066 163.703 135.085L163.118 148.14C163.117 148.177 163.086 148.206 163.05 148.206ZM123.811 148.068H162.984L163.562 135.151H124.39L123.811 148.068Z" fill="white"/>
<path d="M144.54 99.5897H118.297L118.079 104.463H144.322L144.54 99.5897Z" fill="#D3BBDD"/>
<path d="M164.929 42.9662C164.783 46.2279 163.598 49.24 161.699 51.6867C158.831 55.395 154.339 57.8057 149.395 57.8057C144.45 57.8057 140.18 55.395 137.645 51.6867C135.965 49.24 135.051 46.2285 135.197 42.9662C135.564 34.77 142.518 28.1273 150.725 28.1273C158.937 28.1267 165.296 34.77 164.929 42.9662Z" fill="white"/>
<path d="M166.327 31.2332C166.288 32.0997 165.974 32.9002 165.469 33.5501C164.707 34.5354 163.513 35.176 162.199 35.176C160.885 35.176 159.751 34.5354 159.077 33.5501C158.631 32.9002 158.388 32.0997 158.427 31.2332C158.524 29.0552 160.372 27.2903 162.553 27.2903C164.735 27.2903 166.425 29.0552 166.327 31.2332Z" fill="#D3BBDD"/>
<path d="M125.553 83.5883C125.51 84.5521 124.692 85.3335 123.726 85.3335C122.76 85.3335 122.012 84.5521 122.055 83.5883C122.098 82.6244 122.917 81.843 123.882 81.843C124.849 81.8424 125.597 82.6244 125.553 83.5883Z" fill="#263238"/>
<path d="M133.381 83.5883C133.338 84.5521 132.52 85.3335 131.554 85.3335C130.588 85.3335 129.84 84.5521 129.883 83.5883C129.926 82.6244 130.745 81.843 131.71 81.843C132.676 81.843 133.425 82.6244 133.381 83.5883Z" fill="#263238"/>
<path d="M141.21 83.5883C141.167 84.5521 140.349 85.3335 139.383 85.3335C138.417 85.3335 137.669 84.5521 137.712 83.5883C137.755 82.6244 138.573 81.843 139.539 81.843C140.505 81.8424 141.253 82.6244 141.21 83.5883Z" fill="#263238"/>
<path d="M124.237 112.981C124.194 113.944 123.376 114.726 122.41 114.726C121.444 114.726 120.696 113.944 120.739 112.981C120.782 112.017 121.6 111.235 122.566 111.235C123.532 111.235 124.28 112.017 124.237 112.981Z" fill="#263238"/>
<path d="M132.065 112.981C132.022 113.944 131.204 114.726 130.238 114.726C129.272 114.726 128.524 113.944 128.567 112.981C128.61 112.017 129.428 111.235 130.394 111.235C131.36 111.235 132.108 112.017 132.065 112.981Z" fill="#263238"/>
<path d="M139.893 112.981C139.85 113.944 139.032 114.726 138.066 114.726C137.1 114.726 136.352 113.944 136.395 112.981C136.438 112.017 137.256 111.235 138.222 111.235C139.188 111.235 139.937 112.017 139.893 112.981Z" fill="#263238"/>
<path d="M147.722 112.981C147.679 113.944 146.86 114.726 145.894 114.726C144.929 114.726 144.18 113.944 144.223 112.981C144.266 112.017 145.085 111.235 146.051 111.235C147.016 111.235 147.765 112.017 147.722 112.981Z" fill="#263238"/>
<path d="M155.55 112.981C155.507 113.944 154.688 114.726 153.722 114.726C152.757 114.726 152.009 113.944 152.051 112.981C152.094 112.017 152.913 111.235 153.879 111.235C154.844 111.235 155.593 112.017 155.55 112.981Z" fill="#263238"/>
<path d="M156.298 38.0062C156.15 41.3206 153.337 44.0077 150.015 44.0077C146.694 44.0077 144.122 41.3206 144.27 38.0062C144.419 34.6913 147.232 32.0048 150.553 32.0048C153.875 32.0048 156.447 34.6918 156.298 38.0062Z" fill="#D3BBDD"/>
<path d="M161.699 51.6862C158.831 55.3944 154.339 57.8052 149.395 57.8052C144.45 57.8052 140.18 55.3944 137.645 51.6862C140.466 48.8826 144.932 47.0615 149.877 47.0615C154.826 47.0615 159.129 48.8826 161.699 51.6862Z" fill="#D3BBDD"/>
<path opacity="0.1" d="M156.298 38.0062C156.15 41.3206 153.337 44.0077 150.015 44.0077C146.694 44.0077 144.122 41.3206 144.27 38.0062C144.419 34.6913 147.232 32.0048 150.553 32.0048C153.875 32.0048 156.447 34.6918 156.298 38.0062Z" fill="white"/>
<path opacity="0.1" d="M161.699 51.6862C158.831 55.3944 154.339 57.8052 149.395 57.8052C144.45 57.8052 140.18 55.3944 137.645 51.6862C140.466 48.8826 144.932 47.0615 149.877 47.0615C154.826 47.0615 159.129 48.8826 161.699 51.6862Z" fill="white"/>
<path d="M76.3005 91.6593C75.7509 92.8624 75.1722 94.186 74.6643 95.4771C74.1524 96.7804 73.6416 98.0848 73.1965 99.4078C72.3316 102.054 71.5208 104.724 71.1215 107.402L70.9892 108.254C70.9787 108.357 70.9863 108.503 71.0315 108.686C71.1163 109.054 71.3461 109.546 71.6694 110.029C72.3229 111.006 73.2493 111.996 74.2482 112.914C75.2447 113.848 76.3272 114.74 77.4521 115.588C78.5659 116.443 79.7406 117.28 80.8898 118.064L79.8079 120.096C77.0463 118.892 74.4745 117.451 71.9834 115.643C70.7587 114.712 69.5491 113.709 68.4777 112.354C67.9495 111.67 67.4301 110.898 67.0899 109.879C66.9251 109.37 66.8102 108.795 66.8096 108.173C66.8137 108.03 66.8212 107.829 66.8311 107.733L66.8595 107.445L66.9176 106.869C67.2333 103.798 67.9147 100.847 68.8126 97.9846C69.2653 96.555 69.7482 95.14 70.2996 93.7515C70.8626 92.3538 71.4181 91.0123 72.1221 89.6053L76.3005 91.6593Z" fill="#E58A7B"/>
<path d="M80.0773 117.719L84.1785 115.642L83.1192 120.141C83.1192 120.141 80.3031 120.925 78.9931 119.562L80.0773 117.719Z" fill="#E58A7B"/>
<path d="M87.9343 116.381L86.8431 120.099L83.1186 120.141L84.1784 115.642L87.9343 116.381Z" fill="#E58A7B"/>
<path d="M93.7274 69.9716C93.7274 69.9716 94.0832 71.2772 94.6474 72.2613C94.1627 72.7131 93.7274 72.5561 93.7274 72.5561V69.9716Z" fill="#DF5753"/>
<path d="M93.6061 70.0057C93.8462 70.0057 94.0408 69.7085 94.0408 69.3419C94.0408 68.9753 93.8462 68.6781 93.6061 68.6781C93.366 68.6781 93.1714 68.9753 93.1714 69.3419C93.1714 69.7085 93.366 70.0057 93.6061 70.0057Z" fill="#263238"/>
<path d="M93.4999 68.6984L94.3821 68.4447C94.3821 68.4447 93.9294 69.1328 93.4999 68.6984Z" fill="#263238"/>
<path d="M82.389 74.2202C82.9189 76.9166 83.4477 81.8575 81.5567 83.6566C81.5567 83.6566 82.2956 86.3917 87.3162 86.3917C92.837 86.3917 89.9547 83.6566 89.9547 83.6566C86.9418 82.9383 87.0196 80.7077 87.5443 78.6126L82.389 74.2202Z" fill="#E58A7B"/>
<path d="M80.9241 68.0838C81.201 72.5856 81.2219 74.4965 83.5006 76.8071C86.9273 80.2825 92.407 78.9584 93.4837 74.4652C94.4524 70.4204 93.8366 63.7383 89.4214 61.9468C85.0706 60.1818 80.6467 63.5819 80.9241 68.0838Z" fill="#E58A7B"/>
<path d="M81.3687 62.99C79.1068 63.8131 76.0892 63.2008 77.2733 70.1685C78.527 77.5462 76.5971 79.9732 76.5971 79.9732C76.5971 79.9732 85.1826 81.7984 93.9468 79.8643C93.9468 79.8643 91.2711 75.1945 92.0222 71.7869C92.9798 67.4408 92.2207 65.8346 92.2207 65.8346C92.2207 65.8346 84.5493 61.8327 81.3687 62.99Z" fill="#263238"/>
<path d="M90.946 70.4297C90.9368 71.3217 91.2502 72.2201 91.6565 72.844C92.2676 73.7829 92.9932 73.4006 93.1748 72.4258C93.3385 71.5488 93.2172 70.0034 92.4342 69.4039C91.6634 68.8142 90.9571 69.4102 90.946 70.4297Z" fill="#E58A7B"/>
<path d="M79.404 63.7783C78.751 61.9566 81.8527 59.1548 88.4102 60.3203C94.9677 61.4857 95.2556 66.9282 95.2556 66.9282L93.9288 65.3567L93.9886 67.0116L87.2494 68.3039L79.404 63.7783Z" fill="#263238"/>
<path d="M79.96 83.963C79.8695 83.4063 80.2444 82.8821 80.8016 82.7906C82.8435 82.4541 87.4845 81.7729 89.8206 82.0955C91.5561 82.3353 92.0152 83.3467 92.0883 84.1738C92.1429 84.7872 91.6344 85.3045 91.018 85.2767L80.9252 84.8214C80.4406 84.7994 80.0372 84.4414 79.96 83.963Z" fill="#D3BBDD"/>
<path opacity="0.6" d="M79.96 83.963C79.8695 83.4063 80.2444 82.8821 80.8016 82.7906C82.8435 82.4541 87.4845 81.7729 89.8206 82.0955C91.5561 82.3353 92.0152 83.3467 92.0883 84.1738C92.1429 84.7872 91.6344 85.3045 91.018 85.2767L80.9252 84.8214C80.4406 84.7994 80.0372 84.4414 79.96 83.963Z" fill="black"/>
<path d="M85.792 185.159L89.5328 187.751L95.7966 179.279L92.0558 176.688L85.792 185.159Z" fill="#E58A7B"/>
<path d="M77.0597 184.988L81.017 187.237L86.5605 178.277L82.6038 176.028L77.0597 184.988Z" fill="#E58A7B"/>
<path d="M95.7937 179.281L92.566 183.648L88.8241 181.056L92.0518 176.688L95.7937 179.281Z" fill="#CF6F64"/>
<path d="M82.6015 176.03L86.5599 178.28L83.7002 182.897L79.7418 180.648L82.6015 176.03Z" fill="#CF6F64"/>
<path d="M88.9483 112.248C88.9483 112.248 103.563 130.631 100.821 148.209C98.6064 162.407 85.781 181.632 85.781 181.632L79.7505 178.641C79.7505 178.641 86.3028 165.864 90.6054 152.32C92.4099 146.64 91.6408 140.383 88.2675 135.466C80.8643 124.675 69.0036 131.096 76.9819 112.249L88.9483 112.248Z" fill="#D3BBDD"/>
<path opacity="0.6" d="M88.9483 112.248C88.9483 112.248 103.563 130.631 100.821 148.209C98.6064 162.407 85.781 181.632 85.781 181.632L79.7505 178.641C79.7505 178.641 86.3028 165.864 90.6054 152.32C92.4099 146.64 91.6408 140.383 88.2675 135.466C80.8643 124.675 69.0036 131.096 76.9819 112.249L88.9483 112.248Z" fill="black"/>
<path opacity="0.4" d="M96.117 124.06L93.9938 121.953C93.9938 122.12 98.1095 147.471 99.2663 154.595C99.964 152.411 100.501 150.256 100.823 148.209C102.165 139.602 99.3435 130.799 96.117 124.06Z" fill="black"/>
<path d="M95.4756 112.248C95.4756 112.248 113.073 135.348 113.568 149.201C113.983 160.808 94.4001 183.228 94.4001 183.228L88.7149 179.558C88.7149 179.558 100.166 163.619 103.049 150.589C101.95 137.693 78.3569 112.248 78.3569 112.248H95.4756V112.248Z" fill="#D3BBDD"/>
<path opacity="0.6" d="M95.4756 112.248C95.4756 112.248 113.073 135.348 113.568 149.201C113.983 160.808 94.4001 183.228 94.4001 183.228L88.7149 179.558C88.7149 179.558 100.166 163.619 103.049 150.589C101.95 137.693 78.3569 112.248 78.3569 112.248H95.4756V112.248Z" fill="black"/>
<path d="M73.7037 84.6894C71.8191 85.1331 70.0181 91.9606 70.0181 91.9606L77.3679 96.8569C77.3679 96.8569 79.8172 91.4607 78.9623 89.0968C78.0713 86.6351 76.0834 84.1293 73.7037 84.6894Z" fill="#D3BBDD"/>
<path opacity="0.2" d="M75.142 89.0824L74.6283 95.0306L77.3644 96.8581C77.3644 96.8581 78.6465 94.0308 79.0284 91.5668L75.142 89.0824Z" fill="black"/>
<path d="M97.6515 84.8209C97.6515 84.8209 99.8205 85.5832 95.4756 112.248C88.1368 112.248 80.5526 112.248 76.9819 112.248C77.2924 104.737 77.3011 100.105 73.7037 84.6894C73.7037 84.6894 77.5785 83.8483 81.5567 83.6566C84.6689 83.5072 87.2186 83.4075 89.9547 83.6572C93.5614 83.9856 97.6515 84.8209 97.6515 84.8209Z" fill="#D3BBDD"/>
<path d="M99.5298 89.0551C99.9489 90.2107 100.392 91.4607 100.854 92.6609C101.297 93.879 101.756 95.0949 102.23 96.3055L103.654 99.9437L104.014 100.853L104.194 101.308L104.285 101.535C104.3 101.575 104.297 101.572 104.292 101.568C104.267 101.557 104.245 101.442 103.885 101.206C103.709 101.097 103.413 100.992 103.127 100.986C102.84 100.975 102.612 101.045 102.482 101.102C102.22 101.227 102.216 101.281 102.222 101.272C102.239 101.263 102.293 101.212 102.352 101.14C102.605 100.836 102.912 100.312 103.181 99.7907C103.455 99.2596 103.715 98.6919 103.973 98.1162C104.487 96.9617 104.954 95.7569 105.429 94.5504C105.899 93.3404 106.342 92.1124 106.781 90.8809L108.102 87.1842L110.338 87.7466C109.896 90.3909 109.324 92.9806 108.642 95.5797C108.309 96.8818 107.923 98.1729 107.483 99.4762C107.263 100.129 107.018 100.78 106.736 101.444C106.443 102.113 106.152 102.773 105.633 103.539C105.496 103.733 105.342 103.938 105.127 104.164C104.899 104.386 104.636 104.655 104.069 104.909C103.787 105.031 103.395 105.138 102.942 105.12C102.491 105.107 102.034 104.947 101.717 104.751C101.074 104.341 100.852 103.951 100.662 103.658C100.573 103.511 100.498 103.359 100.446 103.249L100.335 103.025L100.115 102.575L99.6761 101.676C99.1026 100.47 98.5408 99.2584 98.0085 98.0333C97.4815 96.8054 96.9679 95.5704 96.4699 94.3262C95.9934 93.0629 95.5221 91.839 95.1024 90.4951L99.5298 89.0551Z" fill="#E58A7B"/>
<path d="M97.6516 84.8209C99.8745 85.3492 102.372 91.9038 102.372 91.9038L95.7658 97.5218C95.7658 97.5218 91.4841 90.3746 92.3507 88.0148C93.2526 85.5571 94.7478 84.1304 97.6516 84.8209Z" fill="#D3BBDD"/>
<path d="M109.134 85.1407L111.453 83.2054L113.066 85.713L111.877 87.8069C111.877 87.8069 109.985 89.5354 108.31 88.6561C107.769 87.4321 108.105 85.9991 109.134 85.1407Z" fill="#E58A7B"/>
<path d="M115.661 83.2112L115.488 83.842L111.814 84.4577L111.452 83.2054L115.661 83.2112Z" fill="#E58A7B"/>
<path d="M94.8708 183.532L88.2431 179.254L89.43 177.194L96.8784 181.764L94.8708 183.532Z" fill="#D3BBDD"/>
<path d="M83.5998 186.934C83.0727 186.934 82.3792 186.601 81.9589 186.368C81.9212 186.347 81.8997 186.306 81.9044 186.262C81.9084 186.22 81.938 186.184 81.9787 186.17C82.1574 186.114 83.7298 185.633 84.1749 186.006C84.2452 186.065 84.3235 186.174 84.2986 186.356C84.2661 186.596 84.1558 186.766 83.9712 186.857C83.8644 186.91 83.7379 186.934 83.5998 186.934ZM82.2944 186.302C83.0153 186.668 83.5957 186.803 83.8749 186.665C83.9939 186.606 84.0624 186.495 84.0856 186.327C84.0978 186.236 84.0658 186.196 84.0362 186.171C83.8023 185.975 82.9305 186.128 82.2944 186.302Z" fill="#263238"/>
<path d="M82.0118 186.38C81.9827 186.38 81.9549 186.369 81.9346 186.348C81.9079 186.32 81.898 186.281 81.9084 186.244C81.9235 186.191 82.2857 184.932 82.8818 184.646C83.0408 184.57 83.2022 184.566 83.3601 184.631C83.6108 184.737 83.6358 184.92 83.6271 185.019C83.5864 185.539 82.5225 186.259 82.0373 186.377C82.0292 186.379 82.0205 186.38 82.0118 186.38ZM83.1366 184.801C83.0832 184.801 83.0292 184.814 82.9747 184.84C82.6195 185.011 82.3211 185.69 82.1783 186.103C82.6891 185.889 83.3862 185.32 83.4111 185.002C83.4152 184.951 83.4036 184.884 83.2753 184.83C83.2295 184.811 83.183 184.801 83.1366 184.801Z" fill="#263238"/>
<path d="M91.891 189.437C91.2375 189.437 90.3262 188.599 89.8276 188.084C89.7957 188.051 89.7882 188.002 89.8085 187.961C89.8294 187.92 89.8816 187.897 89.9188 187.902C90.1486 187.932 92.1673 188.204 92.4523 188.773C92.5068 188.883 92.5022 189 92.4389 189.112C92.3321 189.299 92.1771 189.407 91.9792 189.432C91.9508 189.435 91.9212 189.437 91.891 189.437ZM90.2095 188.162C90.9432 188.873 91.584 189.267 91.9525 189.218C92.0814 189.201 92.1789 189.132 92.2514 189.005C92.2793 188.956 92.2816 188.913 92.259 188.869C92.104 188.56 91.0262 188.293 90.2095 188.162Z" fill="#263238"/>
<path d="M90.2734 188.144C90.1242 188.144 89.9907 188.134 89.8857 188.115C89.8485 188.108 89.8172 188.082 89.8038 188.046C89.7911 188.01 89.7974 187.97 89.8218 187.94C89.8549 187.9 90.6402 186.956 91.382 186.891C91.6141 186.873 91.8109 186.934 91.9792 187.078C92.2073 187.273 92.1916 187.447 92.1382 187.558C91.9543 187.944 90.9513 188.144 90.2734 188.144ZM90.1236 187.926C90.772 187.962 91.8086 187.747 91.9438 187.465C91.9554 187.442 91.9897 187.37 91.8393 187.242C91.714 187.135 91.5689 187.09 91.4011 187.105C90.9142 187.148 90.3703 187.663 90.1236 187.926Z" fill="#263238"/>
<path d="M82.1708 185.771L77.2478 184.382C77.0684 184.332 76.8879 184.415 76.8136 184.582L75.1519 188.31C74.9795 188.697 75.2186 189.177 75.6342 189.286C77.3586 189.741 78.2141 189.874 80.3791 190.485C81.7111 190.861 83.6178 191.548 85.4571 192.066C87.2558 192.574 87.9082 190.798 87.1891 190.417C83.9637 188.711 83.7095 187.542 82.8273 186.246C82.6682 186.013 82.4332 185.845 82.1708 185.771Z" fill="#D3BBDD"/>
<path d="M89.9617 187.407L85.7595 184.496C85.6062 184.39 85.4089 184.41 85.2835 184.544L82.4964 187.53C82.2073 187.84 82.2776 188.371 82.6345 188.609C84.1169 189.599 84.883 190.002 86.7311 191.283C87.8681 192.071 90.1375 193.818 91.7075 194.906C93.2433 195.97 94.439 194.502 93.8829 193.909C91.3895 191.249 90.8392 189.582 90.4277 188.069C90.3528 187.797 90.1851 187.562 89.9617 187.407Z" fill="#D3BBDD"/>
<path d="M86.5552 182.016L78.9768 178.258L79.7615 176.211L87.8501 180.168L86.5552 182.016Z" fill="#D3BBDD"/>
<path d="M76.7051 111.165L76.0637 112.817C75.9987 112.945 76.1508 113.076 76.365 113.076H95.5668C95.7333 113.076 95.8715 112.994 95.8819 112.89L96.0485 111.238C96.0601 111.123 95.9156 111.027 95.7333 111.027H77.0057C76.8688 111.027 76.7469 111.083 76.7051 111.165Z" fill="#D3BBDD"/>
<path opacity="0.4" d="M76.7051 111.165L76.0637 112.817C75.9987 112.945 76.1508 113.076 76.365 113.076H95.5668C95.7333 113.076 95.8715 112.994 95.8819 112.89L96.0485 111.238C96.0601 111.123 95.9156 111.027 95.7333 111.027H77.0057C76.8688 111.027 76.7469 111.083 76.7051 111.165Z" fill="white"/>
<path d="M79.725 113.255H79.2235C79.1236 113.255 79.0476 113.204 79.0546 113.141L79.2896 110.995C79.2966 110.932 79.3837 110.881 79.4841 110.881H79.9856C80.0854 110.881 80.1614 110.932 80.1545 110.995L79.9194 113.141C79.9124 113.204 79.8248 113.255 79.725 113.255Z" fill="#D3BBDD"/>
<path d="M91.5694 113.255H91.0679C90.9681 113.255 90.8921 113.204 90.899 113.141L91.1341 110.995C91.1411 110.932 91.2281 110.881 91.3285 110.881H91.83C91.9299 110.881 92.0059 110.932 91.9989 110.995L91.7639 113.141C91.7569 113.204 91.6693 113.255 91.5694 113.255Z" fill="#D3BBDD"/>
<path d="M79.2833 211.355C87.8712 211.355 94.8331 210.851 94.8331 210.229C94.8331 209.608 87.8712 209.103 79.2833 209.103C70.6953 209.103 63.7334 209.608 63.7334 210.229C63.7334 210.851 70.6953 211.355 79.2833 211.355Z" fill="#F5F5F5"/>
<path d="M88.7597 208.641C86.0085 207.844 82.9805 206.817 81.1069 205.725C81.0547 205.695 80.9995 205.673 80.9467 205.645V193.232H86.4804C87.3957 193.232 88.1375 192.492 88.1375 191.579C88.1375 190.666 87.3957 189.925 86.4804 189.925H80.9467V133.263H77.6332V189.925H72.0995C71.1848 189.925 70.443 190.666 70.443 191.579C70.443 192.492 71.1848 193.232 72.0995 193.232H77.6332V205.644C77.5803 205.672 77.5252 205.693 77.473 205.724C75.5994 206.816 72.5714 207.843 69.8202 208.64C68.9177 208.901 69.1081 210.228 70.0477 210.228H79.2897H88.5316C89.4718 210.229 89.6622 208.902 88.7597 208.641Z" fill="#E0E0E0"/>
<path d="M89.6111 139.623H68.9688C67.3152 139.623 65.9622 138.272 65.9622 136.622V130.498C65.9622 128.848 67.3152 127.497 68.9688 127.497H89.6111C91.2647 127.497 92.6177 128.848 92.6177 130.498V136.622C92.6177 138.272 91.2647 139.623 89.6111 139.623Z" fill="#D3BBDD"/>
<path d="M68.779 139.623V140.677C68.779 141.546 69.7268 142.257 70.8847 142.257H87.6952C88.8531 142.257 89.8009 141.546 89.8009 140.677V139.623H68.779Z" fill="#D3BBDD"/>
<path opacity="0.3" d="M68.779 139.623V140.677C68.779 141.546 69.7268 142.257 70.8847 142.257H87.6952C88.8531 142.257 89.8009 141.546 89.8009 140.677V139.623H68.779Z" fill="white"/>
</svg>
