<svg width="404" height="274" viewBox="0 0 404 274" fill="none" xmlns="http://www.w3.org/2000/svg">
<g clip-path="url(#clip0_1_63)">
<path d="M123.653 127.462H71.6498V185.612H123.653V127.462Z" fill="#CCCCCC"/>
<path d="M45.1755 273.072H18.7009L15.8644 250.38H48.0121L45.1755 273.072Z" fill="#E6E6E6"/>
<path d="M98.3374 256.636L97.444 268.849C97.4035 269.402 97.4818 269.957 97.6734 270.477C97.8651 270.998 98.1658 271.471 98.5553 271.865C98.9448 272.26 99.4141 272.566 99.9318 272.764C100.45 272.962 101.004 273.048 101.557 273.014L107.83 272.634C108.121 272.616 108.404 272.535 108.66 272.396C108.916 272.256 109.137 272.062 109.31 271.827C109.482 271.592 109.6 271.322 109.656 271.037C109.712 270.751 109.705 270.456 109.634 270.174L106.152 256.245L98.3374 256.636Z" fill="#E6E6E6"/>
<path d="M150.812 263.858C158.195 265.585 163.469 268.04 166.934 271.362C168.168 272.537 169.783 273.229 171.484 273.313C173.657 273.427 175.434 273.184 176.769 272.587C177.111 272.436 177.407 272.197 177.625 271.893C177.843 271.59 177.976 271.233 178.01 270.861C178.051 270.483 177.989 270.101 177.832 269.755C177.675 269.408 177.428 269.11 177.117 268.891L159.607 256.432L152.169 259.407L150.433 261.142C150.246 261.33 150.104 261.559 150.019 261.811C149.935 262.063 149.91 262.331 149.947 262.594C149.983 262.857 150.081 263.108 150.231 263.328C150.381 263.547 150.58 263.728 150.812 263.858Z" fill="#E6E6E6"/>
<path d="M128.09 64.4408L78.037 63.9773C78.1629 56.6871 79.859 49.5282 83.5667 43.1221C86.0018 38.9148 85.9492 34.336 85.3623 30.4784C84.4567 24.5254 86.5626 18.4346 91.2421 14.6451C94.8182 11.7441 99.3316 10.2507 103.932 10.4464L104.904 10.4868C108.07 10.6184 111.152 11.5432 113.867 13.1763C116.582 14.8093 118.844 17.0984 120.444 19.8332C122.07 22.7528 122.726 26.1138 122.317 29.4306C121.999 32.5514 122.759 35.7041 124.534 38.8867C127.598 45.8753 128.261 54.8181 128.09 64.4408Z" fill="#2F2E41"/>
<path d="M161.577 257.082L151.754 259.645L103.919 155.431L106.908 257.082H97.0849C86.588 209.258 67.6364 154.064 76.1569 136.639L126.982 133.649L161.577 257.082Z" fill="#6C63FF"/>
<path d="M103.491 46.9471C110.804 46.9471 116.732 41.0192 116.732 33.7069C116.732 26.3945 110.804 20.4667 103.491 20.4667C96.1791 20.4667 90.2512 26.3945 90.2512 33.7069C90.2512 41.0192 96.1791 46.9471 103.491 46.9471Z" fill="#FFB9B9"/>
<path d="M115.023 58.0517L93.241 56.7704C95.3757 51.8708 96.2284 47.1528 95.3765 42.676H111.606C111.57 46.1133 113.28 52.0591 115.023 58.0517Z" fill="#FFB9B9"/>
<path d="M128.69 137.493L80.8552 140.91L85.7667 56.1299L94.0953 53.7807L103.491 55.9162L112.887 51.2179L118.867 53.3538L128.69 137.493Z" fill="#6C63FF"/>
<path d="M88.9699 198.569L56.2965 191.095C66.012 158.877 83.5149 85.172 77.8652 58.906L94.9494 51.2181L88.9699 198.569Z" fill="#E6E6E6"/>
<path d="M73.167 105.46L60.7811 97.7724L71.3441 66.8352C72.5222 63.6429 74.7788 60.9626 77.7237 59.2577L81.282 57.1976L79.1465 88.3761L73.167 105.46Z" fill="#E6E6E6"/>
<path d="M157.093 191.521C146.78 197.488 121.003 200.814 109.684 196.647C108.851 167.538 107.218 85.1987 112.461 50.3639L131.253 58.0517L129.545 81.1153C120.56 100.845 146.649 169.563 157.093 191.521Z" fill="#E6E6E6"/>
<path d="M155.598 101.616L144.066 97.7725L128.69 80.261L131.253 58.0516L156.879 93.9284L155.598 101.616Z" fill="#E6E6E6"/>
<path d="M119.457 118.241C119.646 119.069 120.155 119.788 120.874 120.241C121.592 120.694 122.461 120.844 123.289 120.657L133.078 118.441L131.663 112.192L121.874 114.409C121.046 114.596 120.326 115.106 119.872 115.824C119.419 116.543 119.27 117.412 119.457 118.241Z" fill="#FFB9B9"/>
<path d="M115.023 30.29C107.669 27.266 100.406 27.0472 93.2409 29.8629L90.2512 19.1853H117.586L115.023 30.29Z" fill="#2F2E41"/>
<path d="M128.263 111.013L133.816 121.263C143.155 118.658 151.248 110.447 159.015 100.762L156.879 93.9284L143.639 97.3452L128.263 111.013Z" fill="#E6E6E6"/>
<path d="M124.206 89.8709H122.497C122.497 65.7079 117.522 48.869 112.674 48.869L112.247 47.1606C116.595 47.1606 119.367 54.1688 120.927 60.0481C123.041 68.0186 124.206 78.6098 124.206 89.8709Z" fill="#3F3D56"/>
<path d="M84.9124 83.8915H83.204C83.204 61.762 88.2135 48.0148 95.59 48.0148L95.1629 49.7232C90.0606 49.7232 84.9124 60.2884 84.9124 83.8915Z" fill="#3F3D56"/>
<path d="M123.352 94.5691C125.711 94.5691 127.623 92.6568 127.623 90.298C127.623 87.9392 125.711 86.027 123.352 86.027C120.993 86.027 119.081 87.9392 119.081 90.298C119.081 92.6568 120.993 94.5691 123.352 94.5691Z" fill="#3F3D56"/>
<path d="M78.0788 94.142H76.3704C76.3704 88.0188 79.8191 83.0373 84.0582 83.0373V84.7457C80.7611 84.7457 78.0788 88.9608 78.0788 94.142Z" fill="#3F3D56"/>
<path d="M91.7461 94.142H90.0377C90.0377 88.9608 87.3554 84.7457 84.0583 84.7457V83.0373C88.2974 83.0373 91.7461 88.0188 91.7461 94.142Z" fill="#3F3D56"/>
<path d="M90.8919 96.2774C91.8354 96.2774 92.6003 95.5125 92.6003 94.569C92.6003 93.6255 91.8354 92.8606 90.8919 92.8606C89.9484 92.8606 89.1835 93.6255 89.1835 94.569C89.1835 95.5125 89.9484 96.2774 90.8919 96.2774Z" fill="#3F3D56"/>
<path d="M77.2246 96.2774C78.1681 96.2774 78.933 95.5125 78.933 94.569C78.933 93.6255 78.1681 92.8606 77.2246 92.8606C76.2811 92.8606 75.5162 93.6255 75.5162 94.569C75.5162 95.5125 76.2811 96.2774 77.2246 96.2774Z" fill="#3F3D56"/>
<path d="M55.8693 78.8591L66.5286 80.7625L90.8919 115.404L77.9486 112.359L55.8693 78.8591Z" fill="#6C63FF"/>
<path d="M53.9787 78.4351C53.8163 78.4376 53.6575 78.4836 53.519 78.5684C53.3804 78.6533 53.2672 78.7737 53.1912 78.9173C53.1152 79.0609 53.0791 79.2222 53.0868 79.3845C53.0944 79.5467 53.1456 79.704 53.2348 79.8397L76.0083 114.393C76.1354 114.586 76.3317 114.723 76.5568 114.776L87.1526 117.269C87.3312 117.311 87.5184 117.298 87.6894 117.231C87.8603 117.164 88.0069 117.047 88.1097 116.895C88.2125 116.743 88.2666 116.563 88.2649 116.38C88.2633 116.196 88.2058 116.017 88.1002 115.867L63.0964 80.3148C63.0286 80.2179 62.9423 80.1353 62.8426 80.0718C62.7429 80.0083 62.6316 79.9651 62.5151 79.9446L54.1495 78.4506C54.0932 78.4404 54.036 78.4353 53.9787 78.4351Z" fill="#3F3D56"/>
<path d="M68.1849 103.14L68.8178 109.515L78.8055 108.524C79.6509 108.44 80.4284 108.024 80.9669 107.367C81.5053 106.71 81.7607 105.865 81.6768 105.02C81.5929 104.175 81.1766 103.397 80.5195 102.859C79.8623 102.32 79.0182 102.065 78.1728 102.149L68.1849 103.14Z" fill="#FFB9B9"/>
<path d="M59.4999 102.402C59.5144 104.576 60.3875 106.656 61.9289 108.188C63.4703 109.721 65.5551 110.583 67.729 110.585H69.3713L70.5669 100.622L60.6674 97.0579L59.4999 102.402Z" fill="#E6E6E6"/>
<path d="M404 0.762543H209.223V103.351H404V0.762543Z" fill="#E6E6E6"/>
<path d="M214.896 97.6783H398.327V6.43567H214.896V97.6783Z" fill="white"/>
<path d="M294.32 19.6729H229.079V84.9138H294.32V19.6729Z" fill="#3F3D56"/>
<path d="M278.719 49.4568C279.763 49.4568 280.61 48.6102 280.61 47.5658C280.61 46.5214 279.763 45.6748 278.719 45.6748C277.674 45.6748 276.828 46.5214 276.828 47.5658C276.828 48.6102 277.674 49.4568 278.719 49.4568Z" fill="#6C63FF"/>
<path d="M271.627 42.8382C272.672 42.8382 273.518 41.9916 273.518 40.9472C273.518 39.9028 272.672 39.0562 271.627 39.0562C270.583 39.0562 269.736 39.9028 269.736 40.9472C269.736 41.9916 270.583 42.8382 271.627 42.8382Z" fill="#6C63FF"/>
<path d="M270.682 47.5658C269.986 47.5659 269.304 47.7592 268.711 48.1241C268.19 47.3394 267.576 46.6195 266.884 45.9798C266.892 45.8788 266.9 45.7777 266.9 45.6748C266.9 44.9327 266.682 44.2069 266.273 43.5878C265.864 42.9688 265.282 42.484 264.599 42.1937C263.916 41.9035 263.162 41.8207 262.433 41.9558C261.703 42.0908 261.029 42.4377 260.495 42.9531C259.483 42.8094 258.455 42.8004 257.44 42.9265C257.441 42.8968 257.445 42.868 257.445 42.8382C257.445 42.2051 257.287 41.582 256.985 41.026C256.682 40.4699 256.245 39.9986 255.713 39.6554C255.181 39.3122 254.571 39.108 253.94 39.0616C253.309 39.0151 252.676 39.1279 252.099 39.3895C251.523 39.6511 251.021 40.0533 250.641 40.5591C250.26 41.0649 250.012 41.6582 249.921 42.2845C249.829 42.9108 249.895 43.5502 250.115 44.1441C250.334 44.7379 250.699 45.2671 251.176 45.6833C250.543 46.2257 249.969 46.8332 249.463 47.4957C248.996 47.1072 248.442 46.8369 247.849 46.7076C247.256 46.5783 246.64 46.5938 246.054 46.7527C245.467 46.9117 244.928 47.2096 244.482 47.621C244.035 48.0325 243.694 48.5455 243.487 49.1166C243.281 49.6877 243.215 50.3002 243.295 50.9022C243.375 51.5042 243.599 52.078 243.948 52.5751C244.297 53.0722 244.76 53.478 245.299 53.7581C245.838 54.0383 246.437 54.1845 247.044 54.1844L247.056 54.1838C247.05 54.3411 247.044 54.4984 247.044 54.6572C247.044 55.6088 247.159 56.5569 247.386 57.481C246.262 57.9039 245.264 58.6055 244.485 59.52C243.707 60.4344 243.173 61.5316 242.935 62.7087C242.697 63.8858 242.761 65.1041 243.123 66.2493C243.484 67.3946 244.131 68.4292 245.002 69.2561C245.873 70.083 246.94 70.675 248.102 70.9766C249.265 71.2782 250.485 71.2796 251.648 70.9805C252.811 70.6814 253.879 70.0917 254.752 69.2667C255.624 68.4417 256.273 67.4085 256.637 66.264C259.268 66.7697 261.993 66.3655 264.363 65.1179C264.605 65.6878 264.984 66.1896 265.465 66.5792C265.946 66.9688 266.516 67.2342 267.124 67.3523C267.731 67.4704 268.359 67.4375 268.951 67.2564C269.543 67.0753 270.082 66.7517 270.52 66.3139C270.957 65.876 271.281 65.3374 271.462 64.7453C271.643 64.1532 271.676 63.5257 271.558 62.9179C271.44 62.3101 271.174 61.7405 270.785 61.2593C270.395 60.778 269.893 60.3998 269.324 60.1577C270.143 58.6033 270.603 56.8851 270.67 55.1294L270.682 55.13C271.685 55.13 272.647 54.7315 273.356 54.0222C274.065 53.3129 274.464 52.351 274.464 51.3479C274.464 50.3448 274.065 49.3828 273.356 48.6736C272.647 47.9643 271.685 47.5658 270.682 47.5658Z" fill="#6C63FF"/>
<path d="M269.736 18.2547H250.826V21.0912H269.736V18.2547Z" fill="#E6E6E6"/>
<path d="M377.526 19.6729H312.285V84.9138H377.526V19.6729Z" fill="#3F3D56"/>
<path d="M357.291 63.9232C357.761 63.9232 358.142 63.5422 358.142 63.0723C358.142 62.6023 357.761 62.2213 357.291 62.2213C356.821 62.2213 356.44 62.6023 356.44 63.0723C356.44 63.5422 356.821 63.9232 357.291 63.9232Z" fill="#6C63FF"/>
<path d="M354.1 60.9449C354.57 60.9449 354.951 60.5639 354.951 60.0939C354.951 59.6239 354.57 59.2429 354.1 59.2429C353.63 59.2429 353.249 59.6239 353.249 60.0939C353.249 60.5639 353.63 60.9449 354.1 60.9449Z" fill="#6C63FF"/>
<path d="M353.675 63.0723C353.362 63.0723 353.055 63.1593 352.788 63.3235C352.553 62.9704 352.277 62.6465 351.966 62.3586C351.97 62.3132 351.973 62.2677 351.973 62.2213C351.973 61.8874 351.875 61.5608 351.691 61.2822C351.507 61.0036 351.245 60.7855 350.937 60.6549C350.63 60.5243 350.291 60.487 349.963 60.5478C349.634 60.6085 349.331 60.7646 349.091 60.9966C348.635 60.9319 348.173 60.9279 347.716 60.9846C347.716 60.9713 347.718 60.9583 347.718 60.9449C347.718 60.66 347.647 60.3796 347.511 60.1294C347.375 59.8791 347.178 59.6671 346.939 59.5126C346.699 59.3582 346.425 59.2663 346.141 59.2454C345.857 59.2245 345.572 59.2752 345.313 59.393C345.053 59.5107 344.828 59.6917 344.656 59.9193C344.485 60.1469 344.374 60.4139 344.332 60.6957C344.291 60.9776 344.321 61.2653 344.42 61.5325C344.518 61.7997 344.683 62.0379 344.897 62.2252C344.612 62.4692 344.354 62.7426 344.126 63.0408C343.916 62.8659 343.667 62.7443 343.4 62.6861C343.133 62.6279 342.856 62.6349 342.592 62.7064C342.328 62.778 342.086 62.912 341.885 63.0972C341.684 63.2823 341.53 63.5131 341.437 63.7702C341.344 64.0272 341.315 64.3028 341.351 64.5737C341.387 64.8446 341.488 65.1028 341.645 65.3265C341.802 65.5502 342.01 65.7328 342.253 65.8588C342.495 65.9849 342.764 66.0507 343.038 66.0507L343.043 66.0504C343.04 66.1212 343.038 66.192 343.038 66.2634C343.038 66.6916 343.089 67.1183 343.192 67.5341C342.686 67.7245 342.237 68.0402 341.886 68.4517C341.536 68.8631 341.296 69.3569 341.189 69.8866C341.081 70.4163 341.11 70.9645 341.273 71.4799C341.436 71.9952 341.727 72.4608 342.119 72.8329C342.511 73.205 342.991 73.4714 343.514 73.6071C344.037 73.7429 344.586 73.7435 345.109 73.6089C345.633 73.4743 346.113 73.2089 346.506 72.8377C346.899 72.4664 347.191 72.0015 347.355 71.4865C348.539 71.714 349.765 71.5321 350.831 70.9707C350.94 71.2272 351.111 71.453 351.327 71.6283C351.544 71.8036 351.8 71.9231 352.074 71.9762C352.347 72.0294 352.629 72.0145 352.896 71.9331C353.162 71.8516 353.405 71.7059 353.602 71.5089C353.799 71.3119 353.944 71.0695 354.026 70.8031C354.107 70.5366 354.122 70.2542 354.069 69.9807C354.016 69.7072 353.896 69.4509 353.721 69.2344C353.546 69.0178 353.32 68.8476 353.064 68.7386C353.432 68.0392 353.639 67.266 353.669 66.4759L353.675 66.4762C354.126 66.4762 354.559 66.2969 354.878 65.9777C355.197 65.6585 355.377 65.2256 355.377 64.7742C355.377 64.3229 355.197 63.89 354.878 63.5708C354.559 63.2516 354.126 63.0723 353.675 63.0723Z" fill="#6C63FF"/>
<path d="M363.967 47.7746C364.437 47.7746 364.818 47.3936 364.818 46.9236C364.818 46.4536 364.437 46.0726 363.967 46.0726C363.498 46.0726 363.117 46.4536 363.117 46.9236C363.117 47.3936 363.498 47.7746 363.967 47.7746Z" fill="#6C63FF"/>
<path d="M365.97 43.8956C366.44 43.8956 366.821 43.5146 366.821 43.0446C366.821 42.5746 366.44 42.1936 365.97 42.1936C365.5 42.1936 365.119 42.5746 365.119 43.0446C365.119 43.5146 365.5 43.8956 365.97 43.8956Z" fill="#6C63FF"/>
<path d="M362.987 43.4424C362.902 43.1411 362.735 42.8692 362.505 42.6571C362.781 42.3353 363.018 41.9818 363.211 41.6041C363.255 41.5953 363.3 41.5861 363.345 41.5735C363.666 41.4833 363.954 41.3003 364.172 41.0476C364.39 40.7948 364.529 40.4834 364.572 40.1522C364.614 39.8209 364.558 39.4845 364.411 39.185C364.263 38.8854 364.031 38.6358 363.742 38.4675C363.681 38.0113 363.56 37.5652 363.381 37.1408C363.394 37.1375 363.407 37.1356 363.42 37.132C363.694 37.0551 363.945 36.9106 364.149 36.7117C364.353 36.5129 364.503 36.266 364.587 35.9937C364.671 35.7214 364.685 35.4325 364.628 35.1533C364.571 34.8742 364.445 34.6138 364.262 34.396C364.078 34.1783 363.843 34.0101 363.577 33.9069C363.312 33.8037 363.024 33.7688 362.742 33.8054C362.459 33.842 362.191 33.9489 361.96 34.1164C361.73 34.2838 361.545 34.5064 361.423 34.7638C361.111 34.5557 360.778 34.3811 360.429 34.2427C360.54 33.9931 360.59 33.7204 360.573 33.4476C360.557 33.1748 360.475 32.9099 360.335 32.6754C360.194 32.4409 360 32.2437 359.767 32.1004C359.534 31.9571 359.27 31.872 358.998 31.8522C358.725 31.8324 358.452 31.8785 358.201 31.9867C357.95 32.0949 357.729 32.2619 357.556 32.4737C357.383 32.6855 357.264 32.9357 357.208 33.2033C357.153 33.4709 357.162 33.7479 357.237 34.011L357.238 34.0161C357.169 34.0326 357.1 34.0493 357.032 34.0686C356.62 34.1848 356.223 34.3502 355.85 34.5612C355.53 34.126 355.104 33.7792 354.613 33.5535C354.122 33.3278 353.582 33.2306 353.043 33.2709C352.504 33.3113 351.984 33.4879 351.532 33.7842C351.08 34.0805 350.711 34.4868 350.459 34.9649C350.207 35.4431 350.081 35.9774 350.092 36.5177C350.103 37.058 350.251 37.5866 350.523 38.054C350.794 38.5213 351.18 38.912 351.644 39.1894C352.108 39.4668 352.634 39.6218 353.174 39.6399C353.276 40.8411 353.784 41.9719 354.613 42.8466C354.396 43.021 354.225 43.246 354.115 43.502C354.005 43.758 353.959 44.0371 353.982 44.3147C354.005 44.5924 354.096 44.8602 354.247 45.0946C354.397 45.329 354.603 45.5228 354.846 45.659C355.089 45.7953 355.362 45.8698 355.641 45.876C355.919 45.8822 356.195 45.8199 356.444 45.6946C356.693 45.5693 356.907 45.3848 357.068 45.1574C357.229 44.9299 357.332 44.6664 357.367 44.3901C358.14 44.5552 358.941 44.5449 359.709 44.3599L359.71 44.3651C359.771 44.5804 359.873 44.7817 360.011 44.9574C360.15 45.1331 360.321 45.2799 360.516 45.3893C360.711 45.4987 360.926 45.5686 361.148 45.595C361.37 45.6214 361.595 45.6038 361.81 45.5432C362.026 45.4826 362.227 45.3801 362.402 45.2417C362.578 45.1033 362.725 44.9317 362.834 44.7366C362.943 44.5415 363.013 44.3268 363.039 44.1047C363.065 43.8827 363.048 43.6576 362.987 43.4424Z" fill="#6C63FF"/>
<path d="M331.008 36.2108C331.478 36.2108 331.859 35.8298 331.859 35.3598C331.859 34.8898 331.478 34.5088 331.008 34.5088C330.538 34.5088 330.157 34.8898 330.157 35.3598C330.157 35.8298 330.538 36.2108 331.008 36.2108Z" fill="#6C63FF"/>
<path d="M326.657 36.5594C327.127 36.5594 327.508 36.1784 327.508 35.7084C327.508 35.2384 327.127 34.8575 326.657 34.8575C326.187 34.8575 325.806 35.2384 325.806 35.7084C325.806 36.1784 326.187 36.5594 326.657 36.5594Z" fill="#6C63FF"/>
<path d="M328.57 38.0308C328.359 38.262 328.216 38.5474 328.157 38.855C327.738 38.7903 327.313 38.7757 326.89 38.8116C326.859 38.7783 326.828 38.7452 326.794 38.7139C326.547 38.4886 326.24 38.3408 325.91 38.289C325.58 38.2372 325.242 38.2836 324.939 38.4225C324.635 38.5614 324.379 38.7867 324.202 39.0701C324.026 39.3536 323.937 39.6828 323.946 40.0166C323.591 40.3095 323.276 40.6483 323.01 41.0239C323.001 41.0146 322.992 41.0046 322.982 40.9956C322.772 40.8033 322.517 40.6667 322.24 40.5986C321.964 40.5304 321.675 40.5328 321.399 40.6054C321.124 40.6781 320.871 40.8187 320.664 41.0144C320.457 41.2101 320.302 41.4547 320.214 41.7256C320.126 41.9966 320.108 42.2853 320.161 42.5653C320.213 42.8452 320.335 43.1075 320.515 43.3281C320.696 43.5487 320.928 43.7205 321.192 43.8277C321.456 43.935 321.743 43.9743 322.026 43.942C322.014 44.317 322.042 44.6922 322.108 45.0614C321.838 45.0987 321.58 45.2006 321.357 45.3586C321.134 45.5165 320.952 45.7259 320.827 45.9689C320.702 46.212 320.638 46.4815 320.639 46.7548C320.64 47.0281 320.707 47.2971 320.834 47.539C320.961 47.7809 321.145 47.9887 321.369 48.1446C321.594 48.3006 321.852 48.4003 322.123 48.4352C322.394 48.47 322.67 48.4391 322.926 48.345C323.183 48.2509 323.413 48.0964 323.597 47.8946L323.601 47.8904C323.651 47.9402 323.702 47.9899 323.755 48.038C324.071 48.3267 324.421 48.5762 324.797 48.7811C324.596 49.283 324.527 49.8275 324.594 50.3637C324.662 50.8999 324.865 51.4101 325.184 51.8464C325.503 52.2828 325.927 52.6309 326.417 52.8582C326.908 53.0856 327.448 53.1846 327.987 53.146C328.526 53.1074 329.046 52.9325 329.499 52.6377C329.952 52.3429 330.323 51.9378 330.576 51.4605C330.83 50.9832 330.958 50.4494 330.948 49.909C330.939 49.3687 330.792 48.8395 330.523 48.3713C331.489 47.6504 332.181 46.6224 332.486 45.456C332.749 45.5484 333.03 45.575 333.306 45.5332C333.581 45.4915 333.842 45.3828 334.066 45.2166C334.289 45.0504 334.469 44.8319 334.588 44.5802C334.708 44.3285 334.764 44.0513 334.751 43.7729C334.738 43.4946 334.658 43.2236 334.516 42.9838C334.374 42.744 334.175 42.5426 333.938 42.3975C333.7 42.2523 333.43 42.1677 333.152 42.1512C332.874 42.1346 332.596 42.1866 332.342 42.3026C332.074 41.5588 331.643 40.8846 331.08 40.3295L331.084 40.3257C331.235 40.1607 331.352 39.9676 331.428 39.7573C331.504 39.547 331.538 39.3238 331.528 39.1003C331.518 38.8768 331.464 38.6575 331.37 38.4549C331.275 38.2523 331.141 38.0704 330.976 37.9196C330.811 37.7687 330.617 37.6519 330.407 37.5759C330.196 37.4998 329.973 37.466 329.75 37.4763C329.526 37.4867 329.307 37.541 329.104 37.6361C328.902 37.7312 328.72 37.8653 328.57 38.0308Z" fill="#6C63FF"/>
<path d="M352.942 18.2547H334.031V21.0912H352.942V18.2547Z" fill="#E6E6E6"/>
<path d="M11.9024 241.985C18.7194 251.114 32.8702 252.075 32.8702 252.075C32.8702 252.075 35.9685 238.234 29.1514 229.105C22.3344 219.975 8.18359 219.015 8.18359 219.015C8.18359 219.015 5.08535 232.855 11.9024 241.985Z" fill="#E6E6E6"/>
<path d="M46.6298 245.417C42.1314 251.441 32.7937 252.075 32.7937 252.075C32.7937 252.075 30.7493 242.942 35.2476 236.918C39.746 230.894 49.0837 230.26 49.0837 230.26C49.0837 230.26 51.1281 239.393 46.6298 245.417Z" fill="#E6E6E6"/>
<path d="M245.626 272.91H0V273.97H245.626V272.91Z" fill="#3F3D56"/>
</g>
<defs>
<clipPath id="clip0_1_63">
<rect width="404" height="273.207" fill="white" transform="translate(0 0.762543)"/>
</clipPath>
</defs>
</svg>
