<svg width="21" height="27" viewBox="0 0 21 27" fill="none" xmlns="http://www.w3.org/2000/svg">
<path d="M1.52588e-05 1.35081L1.52588e-05 25.6515C0.000787735 25.8975 0.0686436 26.1387 0.196281 26.349C0.323919 26.5594 0.506502 26.7309 0.724382 26.8452C0.942261 26.9595 1.18719 27.0122 1.43279 26.9976C1.67839 26.9831 1.91537 26.9018 2.11823 26.7626L19.6687 14.6122C20.3964 14.1087 20.3964 12.8963 19.6687 12.3914L2.11823 0.241081C1.9158 0.100441 1.6787 0.0179662 1.43268 0.00261762C1.18667 -0.0127309 0.941156 0.0396339 0.722816 0.154023C0.504477 0.268412 0.321657 0.440449 0.194227 0.651445C0.0667973 0.86244 -0.000371933 1.10432 1.52588e-05 1.35081Z" fill="#D3BBDD"/>
</svg>
