<svg width="41" height="29" viewBox="0 0 41 29" fill="none" xmlns="http://www.w3.org/2000/svg">
<path d="M0 1.74998C0 1.38768 0.143925 1.04021 0.400113 0.784024C0.656301 0.527836 1.00377 0.383911 1.36607 0.383911H35.0625C35.4248 0.383911 35.7723 0.527836 36.0285 0.784024C36.2846 1.04021 36.4286 1.38768 36.4286 1.74998C36.4286 2.11229 36.2846 2.45975 36.0285 2.71594C35.7723 2.97213 35.4248 3.11605 35.0625 3.11605H1.36607C1.00377 3.11605 0.656301 2.97213 0.400113 2.71594C0.143925 2.45975 0 2.11229 0 1.74998ZM0 27.25C0 26.8877 0.143925 26.5402 0.400113 26.284C0.656301 26.0278 1.00377 25.8839 1.36607 25.8839H31.4196C31.7819 25.8839 32.1294 26.0278 32.3856 26.284C32.6418 26.5402 32.7857 26.8877 32.7857 27.25C32.7857 27.6123 32.6418 27.9598 32.3856 28.2159C32.1294 28.4721 31.7819 28.6161 31.4196 28.6161H1.36607C1.00377 28.6161 0.656301 28.4721 0.400113 28.2159C0.143925 27.9598 0 27.6123 0 27.25ZM1.36607 13.1339C1.00377 13.1339 0.656301 13.2778 0.400113 13.534C0.143925 13.7902 0 14.1377 0 14.5C0 14.8623 0.143925 15.2098 0.400113 15.4659C0.656301 15.7221 1.00377 15.8661 1.36607 15.8661H38.7054C39.0677 15.8661 39.4151 15.7221 39.6713 15.4659C39.9275 15.2098 40.0714 14.8623 40.0714 14.5C40.0714 14.1377 39.9275 13.7902 39.6713 13.534C39.4151 13.2778 39.0677 13.1339 38.7054 13.1339H1.36607Z" fill="black"/>
</svg>
